<svg height="1024" node-id="1" sillyvg="true" template-height="1024" template-width="1024" version="1.1" viewBox="0 0 1024 1024" width="1024" xmlns="http://www.w3.org/2000/svg" xmlns:xlink="http://www.w3.org/1999/xlink"><defs node-id="96"></defs><g node-id="348"><g node-id="371"><g node-id="394"><path d="M 614.90 681.60 L 617.60 677.40 L 620.80 673.90 L 624.30 671.00 L 628.30 668.70 L 632.70 666.90 L 637.60 665.60 L 637.60 664.80 L 229.30 664.80 L 229.30 665.20 L 223.20 665.70 L 217.60 666.90 L 212.20 668.90 L 207.10 671.50 L 202.30 675.00 L 197.70 679.20 L 193.70 683.90 L 190.50 688.90 L 188.10 694.10 L 186.30 699.60 L 185.20 705.40 L 184.80 711.60 L 185.20 718.00 L 186.30 723.90 L 188.20 729.40 L 190.70 734.50 L 194.00 739.40 L 198.10 744.00 L 202.60 747.90 L 207.50 751.10 L 212.60 753.60 L 218.00 755.40 L 223.80 756.40 L 230.10 756.80 L 636.90 757.20 L 631.80 755.80 L 627.40 754.00 L 623.50 751.70 L 620.00 748.90 L 617.00 745.60 L 614.30 741.80 L 612.10 737.30 L 610.20 732.20 L 608.80 726.30 L 608.00 719.40 L 607.70 711.60 L 608.00 704.30 L 608.90 697.70 L 610.40 691.70 L 612.40 686.40 L 614.90 681.60 Z" fill="#ffffff" fill-rule="nonzero" group-id="1,24,47" node-id="104" stroke="none" target-height="92.400024" target-width="452.8" target-x="184.8" target-y="664.8"/></g></g></g><g node-id="349"><g node-id="372"><g node-id="395"><path d="M 230.10 124.00 L 228.10 124.40 L 228.10 674.40 L 615.70 674.40 L 620.10 674.10 L 624.30 673.30 L 628.30 672.00 L 632.10 670.20 L 635.80 667.80 L 639.30 664.80 L 642.20 661.40 L 644.60 657.90 L 646.40 654.20 L 647.80 650.30 L 648.60 646.10 L 648.90 641.60 L 648.90 156.80 L 648.60 152.30 L 647.80 148.10 L 646.40 144.20 L 644.60 140.50 L 642.20 137.00 L 639.30 133.60 L 635.80 130.60 L 632.10 128.20 L 628.30 126.40 L 624.30 125.10 L 620.10 124.30 L 615.70 124.00 L 230.10 124.00 Z" fill="#ffc23a" fill-rule="nonzero" group-id="2,25,48" node-id="115" stroke="none" target-height="550.4" target-width="420.80002" target-x="228.1" target-y="124"/></g></g></g><g node-id="350"><g node-id="373"><g node-id="396"><path d="M 177.30 161.20 L 176.70 167.60 L 176.50 181.20 L 175.30 716.00 L 175.70 724.00 L 176.10 724.00 L 177.50 729.80 L 179.50 735.30 L 182.20 740.40 L 185.70 745.30 L 189.90 750.00 L 194.80 754.40 L 200.20 758.10 L 205.80 761.00 L 211.60 763.40 L 217.80 765.00 L 224.30 766.10 L 232.50 766.40 L 232.50 756.80 L 230.80 756.80 L 231.40 753.60 L 231.30 744.40 L 230.30 726.60 L 230.10 714.80 L 230.40 703.40 L 232.10 679.20 L 232.00 675.80 L 231.70 674.40 L 231.30 674.00 L 234.10 674.40 L 232.50 216.40 L 233.70 216.40 L 233.70 124.40 L 231.30 124.00 L 224.70 124.30 L 218.50 125.20 L 212.60 126.60 L 206.80 128.60 L 201.40 131.20 L 196.10 134.40 L 190.80 138.40 L 186.60 142.50 L 183.10 146.80 L 180.50 151.30 L 178.50 156.10 L 177.30 161.20 Z" fill="#f9a431" fill-rule="nonzero" group-id="3,26,49" node-id="126" stroke="none" target-height="642.4" target-width="58.800003" target-x="175.3" target-y="124"/></g></g></g><g node-id="351"><g node-id="374"><g node-id="397"><path d="M 642.80 757.60 L 638.30 752.70 L 634.40 747.70 L 631.30 742.60 L 628.80 737.40 L 627.00 732.00 L 625.80 726.40 L 625.10 720.60 L 625.20 714.40 L 625.90 708.00 L 627.30 701.20 L 640.50 672.40 L 199.70 666.40 L 202.10 757.60 L 642.80 757.60 Z" fill="#e7e5e5" fill-rule="nonzero" group-id="4,27,50" node-id="137" stroke="none" target-height="91.19995" target-width="443.09998" target-x="199.7" target-y="666.4"/></g></g></g><g node-id="352"><g node-id="375"><g node-id="398"><path d="M 631.70 687.60 L 632.40 684.60 L 633.60 681.60 L 635.50 678.60 L 638.00 675.50 L 641.30 672.40 L 205.70 662.40 L 199.70 723.20 L 205.50 719.40 L 212.90 715.60 L 222.10 711.60 L 233.50 707.70 L 247.30 703.70 L 263.90 699.80 L 283.70 696.00 L 303.60 692.80 L 325.40 690.00 L 349.30 687.60 L 375.40 685.60 L 403.90 684.00 L 434.80 683.00 L 468.30 682.60 L 504.60 682.80 L 543.80 683.70 L 586.10 685.20 L 631.70 687.60 Z" fill="#cececd" fill-rule="nonzero" group-id="5,28,51" node-id="148" stroke="none" target-height="60.799988" target-width="441.59998" target-x="199.7" target-y="662.4"/></g></g></g><g node-id="353"><g node-id="376"><g node-id="399"><path d="M 649.30 672.40 L 649.30 648.00 L 217.30 648.00 L 212.40 648.30 L 208.10 649.10 L 204.30 650.50 L 200.80 652.40 L 197.70 654.80 L 195.70 656.80 L 190.70 662.60 L 186.40 668.80 L 182.80 675.60 L 179.70 682.90 L 177.30 690.80 L 175.90 698.20 L 175.20 705.60 L 175.30 713.00 L 176.20 720.50 L 177.70 728.10 L 180.10 735.90 L 183.30 743.80 L 187.40 752.00 L 194.80 764.00 L 197.60 767.00 L 200.60 769.50 L 204.00 771.40 L 207.90 772.80 L 212.30 773.70 L 217.30 774.00 L 649.30 774.00 L 649.30 749.60 L 219.00 749.60 L 216.40 749.10 L 213.70 748.00 L 211.30 746.40 L 209.40 744.40 L 207.90 741.90 L 206.70 738.80 L 205.90 735.00 L 205.70 730.40 L 205.70 691.60 L 205.90 687.00 L 206.70 683.20 L 207.90 680.10 L 209.40 677.60 L 211.30 675.60 L 213.70 674.00 L 221.70 672.40 L 649.30 672.40 Z" fill="#ffc23a" fill-rule="nonzero" group-id="6,29,52" node-id="159" stroke="none" target-height="126" target-width="474.09998" target-x="175.2" target-y="648"/></g></g></g><g node-id="354"><g node-id="377"><g node-id="400"><path d="M 195.70 656.80 L 190.70 662.60 L 186.40 668.80 L 182.80 675.60 L 179.70 682.90 L 177.30 690.80 L 175.90 698.20 L 175.20 705.60 L 175.30 713.00 L 176.20 720.50 L 177.70 728.10 L 180.10 735.90 L 183.30 743.80 L 187.40 752.00 L 194.80 764.00 L 197.60 767.00 L 200.60 769.50 L 204.00 771.40 L 207.90 772.80 L 212.30 773.70 L 217.30 774.00 L 296.50 774.00 L 296.50 749.60 L 219.00 749.60 L 216.40 749.10 L 213.70 748.00 L 211.30 746.40 L 209.40 744.40 L 207.90 741.90 L 206.70 738.80 L 205.90 735.00 L 205.70 730.40 L 205.70 691.60 L 205.90 687.00 L 206.70 683.20 L 207.90 680.10 L 209.40 677.60 L 211.30 675.60 L 213.70 674.00 L 221.70 672.40 L 296.50 672.40 L 296.50 648.00 L 217.30 648.00 L 212.40 648.30 L 208.10 649.10 L 204.30 650.50 L 200.80 652.40 L 197.70 654.80 L 195.70 656.80 Z" fill="#f9a431" fill-rule="nonzero" group-id="7,30,53" node-id="170" stroke="none" target-height="126" target-width="121.3" target-x="175.2" target-y="648"/></g></g></g><g node-id="355"><g node-id="378"><g node-id="401"><path d="M 370.80 736.40 L 367.60 729.90 L 364.20 724.70 L 360.80 720.50 L 357.30 717.30 L 353.70 714.90 L 350.10 713.20 L 343.40 712.10 L 335.40 711.40 L 314.10 711.20 L 325.30 723.20 L 328.60 728.80 L 331.40 734.60 L 333.40 740.60 L 334.80 746.90 L 335.60 753.50 L 335.70 760.40 L 353.20 737.20 L 377.30 754.00 L 375.70 748.50 L 373.60 742.60 L 370.80 736.40 Z" fill="#ea5645" fill-rule="nonzero" group-id="8,31,54" node-id="181" stroke="none" target-height="49.200012" target-width="63.19998" target-x="314.1" target-y="711.2"/></g></g></g><g node-id="356"><g node-id="379"><g node-id="402"><path d="M 296.50 124.00 L 230.10 124.00 L 230.10 648.00 L 296.50 648.00 L 296.50 124.00 Z" fill="#f9a431" fill-rule="nonzero" group-id="9,32,55" node-id="192" stroke="none" target-height="524" target-width="66.399994" target-x="230.1" target-y="124"/></g></g></g><g node-id="357"><g node-id="380"><g node-id="403"><path d="M 294.80 217.60 L 292.40 217.90 L 290.10 218.70 L 287.80 220.20 L 285.70 222.40 L 283.90 225.10 L 282.70 228.00 L 281.90 231.10 L 281.70 234.40 L 281.90 242.10 L 282.70 245.20 L 283.90 248.10 L 285.70 250.80 L 287.80 253.00 L 290.10 254.50 L 292.40 255.30 L 294.80 255.60 L 546.10 255.60 L 548.70 255.30 L 551.10 254.40 L 553.30 252.90 L 555.30 250.80 L 557.00 248.10 L 558.20 245.20 L 559.00 242.10 L 559.30 238.80 L 559.00 231.10 L 558.20 228.00 L 557.00 225.10 L 555.30 222.40 L 553.30 220.30 L 551.10 218.80 L 548.70 217.90 L 546.10 217.60 L 294.80 217.60 Z" fill="#ea5645" fill-rule="nonzero" group-id="10,33,56" node-id="203" stroke="none" target-height="38" target-width="277.59998" target-x="281.7" target-y="217.6"/></g></g></g><g node-id="358"><g node-id="381"><g node-id="404"><path d="M 333.70 268.40 L 331.80 268.70 L 330.10 269.60 L 328.50 271.10 L 326.90 273.60 L 325.30 276.90 L 324.40 280.90 L 324.10 285.60 L 324.40 294.30 L 325.30 298.40 L 326.90 302.00 L 328.50 304.30 L 330.10 305.70 L 331.80 306.50 L 333.70 306.80 L 517.70 306.80 L 519.50 306.50 L 521.20 305.70 L 522.80 304.30 L 524.50 302.00 L 526.00 298.40 L 526.90 294.30 L 527.30 289.60 L 526.90 280.90 L 526.00 276.90 L 524.50 273.60 L 522.80 271.10 L 521.20 269.60 L 519.50 268.70 L 517.70 268.40 L 333.70 268.40 Z" fill="#ea5645" fill-rule="nonzero" group-id="11,34,57" node-id="214" stroke="none" target-height="38.399994" target-width="203.19998" target-x="324.1" target-y="268.4"/></g></g></g><g node-id="359"><g node-id="382"><g node-id="405"><path d="M 397.70 870.00 L 402.20 873.90 L 407.10 877.10 L 412.20 879.60 L 417.60 881.40 L 423.40 882.40 L 429.70 882.80 L 836.50 883.20 L 831.40 881.80 L 827.00 880.00 L 823.10 877.70 L 819.60 874.90 L 816.60 871.60 L 813.90 867.80 L 811.70 863.30 L 809.80 858.20 L 808.40 852.30 L 807.60 845.40 L 807.30 837.60 L 807.60 830.00 L 808.50 823.40 L 810.00 817.50 L 812.00 812.20 L 814.50 807.60 L 817.20 803.40 L 820.40 800.00 L 823.90 797.10 L 827.90 794.80 L 832.30 793.10 L 837.30 792.00 L 837.30 791.20 L 428.50 791.20 L 422.40 791.80 L 416.70 793.10 L 411.40 795.10 L 406.50 797.70 L 401.70 801.10 L 397.30 805.20 L 393.30 809.90 L 390.10 814.90 L 387.70 820.10 L 385.90 825.60 L 384.80 831.40 L 384.50 837.60 L 384.80 844.00 L 385.90 849.90 L 387.80 855.40 L 390.30 860.50 L 393.60 865.40 L 397.70 870.00 Z" fill="#ffffff" fill-rule="nonzero" group-id="12,35,58" node-id="225" stroke="none" target-height="92" target-width="452.8" target-x="384.5" target-y="791.2"/></g></g></g><g node-id="360"><g node-id="383"><g node-id="406"><path d="M 838.50 260.00 L 835.10 257.00 L 831.60 254.60 L 827.90 252.80 L 823.90 251.50 L 819.70 250.70 L 815.30 250.40 L 427.70 250.40 L 427.70 800.40 L 429.30 800.80 L 815.30 800.80 L 819.70 800.50 L 823.90 799.70 L 827.90 798.40 L 831.60 796.60 L 835.10 794.20 L 838.50 791.20 L 841.40 787.80 L 843.80 784.30 L 845.60 780.60 L 847.00 776.70 L 847.80 772.50 L 848.00 768.00 L 848.00 283.20 L 847.80 278.70 L 847.00 274.50 L 845.60 270.60 L 843.80 266.90 L 841.40 263.40 L 838.50 260.00 Z" fill="#ea5645" fill-rule="nonzero" group-id="13,36,59" node-id="236" stroke="none" target-height="550.4" target-width="420.3" target-x="427.7" target-y="250.4"/></g></g></g><g node-id="361"><g node-id="384"><g node-id="407"><path d="M 376.80 287.60 L 376.30 293.60 L 376.10 307.20 L 374.80 842.00 L 375.30 850.00 L 375.70 850.00 L 377.00 855.80 L 379.10 861.30 L 381.80 866.50 L 385.10 871.40 L 389.20 876.00 L 394.10 880.40 L 399.50 884.10 L 405.20 887.10 L 411.10 889.40 L 417.20 891.00 L 423.70 892.10 L 431.70 892.40 L 432.10 883.20 L 430.50 882.80 L 430.80 880.10 L 429.50 853.30 L 429.30 840.80 L 429.60 829.10 L 431.30 805.10 L 431.20 801.90 L 430.90 800.70 L 430.50 800.40 L 433.30 800.40 L 431.70 342.40 L 433.30 342.40 L 433.30 250.40 L 423.90 250.70 L 417.70 251.60 L 411.80 253.00 L 406.20 255.10 L 400.80 257.60 L 395.70 260.80 L 390.50 264.60 L 386.20 268.70 L 382.80 272.90 L 380.10 277.50 L 378.10 282.40 L 376.80 287.60 Z" fill="#d13431" fill-rule="nonzero" group-id="14,37,60" node-id="247" stroke="none" target-height="642" target-width="58.5" target-x="374.8" target-y="250.4"/></g></g></g><g node-id="362"><g node-id="385"><g node-id="408"><path d="M 399.30 792.80 L 401.30 883.60 L 842.00 883.60 L 837.50 878.70 L 833.80 873.80 L 830.70 868.70 L 828.30 863.40 L 826.50 858.00 L 825.30 852.40 L 824.70 846.60 L 824.70 840.50 L 825.40 834.00 L 826.90 827.20 L 840.00 798.40 L 399.30 792.80 Z" fill="#e7e5e5" fill-rule="nonzero" group-id="15,38,61" node-id="258" stroke="none" target-height="90.79999" target-width="442.7" target-x="399.3" target-y="792.8"/></g></g></g><g node-id="363"><g node-id="386"><g node-id="409"><path d="M 405.30 788.40 L 399.30 849.20 L 405.10 845.40 L 412.50 841.60 L 421.70 837.60 L 433.10 833.70 L 446.90 829.70 L 463.50 825.80 L 483.30 822.00 L 503.20 818.80 L 525.00 816.00 L 548.90 813.60 L 575.00 811.60 L 603.50 810.00 L 634.40 809.00 L 667.90 808.60 L 704.20 808.80 L 743.40 809.70 L 785.70 811.20 L 831.30 813.60 L 832.20 809.80 L 834.00 806.10 L 836.70 802.30 L 840.50 798.40 L 405.30 788.40 Z" fill="#cececd" fill-rule="nonzero" group-id="16,39,62" node-id="269" stroke="none" target-height="60.799988" target-width="441.2" target-x="399.3" target-y="788.4"/></g></g></g><g node-id="364"><g node-id="387"><g node-id="410"><path d="M 395.30 782.80 L 390.10 788.90 L 385.80 795.40 L 382.10 802.30 L 379.10 809.50 L 376.80 817.20 L 375.50 824.50 L 374.90 831.80 L 374.90 839.10 L 375.80 846.60 L 377.30 854.20 L 379.70 862.00 L 382.90 870.00 L 387.00 878.30 L 394.30 890.30 L 396.90 893.20 L 399.90 895.60 L 403.30 897.40 L 407.30 898.80 L 411.70 899.70 L 416.90 900.00 L 848.90 900.00 L 848.90 876.00 L 418.60 876.00 L 416.00 875.30 L 413.20 874.00 L 410.90 872.40 L 409.00 870.40 L 407.50 867.90 L 406.30 864.80 L 405.50 861.00 L 405.30 856.40 L 405.30 817.60 L 405.50 813.00 L 406.30 809.20 L 407.50 806.10 L 409.00 803.60 L 410.90 801.60 L 413.20 800.00 L 421.30 798.40 L 848.90 798.40 L 848.90 774.00 L 416.90 774.00 L 412.00 774.30 L 407.70 775.10 L 403.90 776.50 L 400.40 778.40 L 397.30 780.80 L 395.30 782.80 Z" fill="#ea5645" fill-rule="nonzero" group-id="17,40,63" node-id="280" stroke="none" target-height="126" target-width="474.00003" target-x="374.9" target-y="774"/></g></g></g><g node-id="365"><g node-id="388"><g node-id="411"><path d="M 495.70 798.40 L 495.70 774.00 L 416.90 774.00 L 412.00 774.30 L 407.70 775.10 L 403.90 776.50 L 400.40 778.40 L 397.30 780.80 L 395.30 782.80 L 390.10 788.90 L 385.80 795.40 L 382.10 802.30 L 379.10 809.50 L 376.80 817.20 L 375.50 824.50 L 374.90 831.80 L 374.90 839.10 L 375.80 846.60 L 377.30 854.20 L 379.70 862.00 L 382.90 870.00 L 387.00 878.30 L 394.30 890.30 L 396.90 893.20 L 399.90 895.60 L 403.30 897.40 L 407.30 898.80 L 411.70 899.70 L 416.90 900.00 L 495.70 900.00 L 495.70 876.00 L 418.60 876.00 L 416.00 875.30 L 413.20 874.00 L 410.90 872.40 L 409.00 870.40 L 407.50 867.90 L 406.30 864.80 L 405.50 861.00 L 405.30 856.40 L 405.30 817.60 L 405.50 813.00 L 406.30 809.20 L 407.50 806.10 L 409.00 803.60 L 410.90 801.60 L 413.20 800.00 L 421.30 798.40 L 495.70 798.40 Z" fill="#d13431" fill-rule="nonzero" group-id="18,41,64" node-id="291" stroke="none" target-height="126" target-width="120.80002" target-x="374.9" target-y="774"/></g></g></g><g node-id="366"><g node-id="389"><g node-id="412"><path d="M 570.50 862.40 L 567.20 855.90 L 563.80 850.70 L 560.40 846.50 L 556.90 843.30 L 553.30 840.90 L 549.70 839.20 L 543.00 838.10 L 535.00 837.40 L 525.70 837.20 L 513.70 837.60 L 524.90 849.60 L 528.20 855.00 L 531.00 860.70 L 533.00 866.70 L 534.40 872.90 L 535.20 879.40 L 535.30 886.40 L 552.90 863.20 L 576.80 880.00 L 575.30 874.50 L 573.20 868.60 L 570.50 862.40 Z" fill="#ffc23a" fill-rule="nonzero" group-id="19,42,65" node-id="302" stroke="none" target-height="49.200012" target-width="63.099976" target-x="513.7" target-y="837.2"/></g></g></g><g node-id="367"><g node-id="390"><g node-id="413"><path d="M 495.70 250.40 L 429.30 250.40 L 429.30 774.00 L 495.70 774.00 L 495.70 250.40 Z" fill="#d13431" fill-rule="nonzero" group-id="20,43,66" node-id="313" stroke="none" target-height="523.6" target-width="66.400024" target-x="429.3" target-y="250.4"/></g></g></g><g node-id="368"><g node-id="391"><g node-id="414"><path d="M 582.10 311.20 L 524.10 311.20 L 463.70 562.00 L 512.80 562.00 L 522.90 508.00 L 582.10 508.00 L 592.10 562.00 L 642.50 562.00 L 582.10 311.20 M 573.60 465.20 L 531.30 465.20 L 552.50 354.40 L 573.60 465.20 Z" fill="#ffc23a" fill-rule="nonzero" group-id="21,44,67" node-id="324" stroke="none" target-height="250.79999" target-width="178.79999" target-x="463.7" target-y="311.2"/></g></g></g><g node-id="369"><g node-id="392"><g node-id="415"><path d="M 602.90 437.20 L 602.90 739.60 L 796.50 739.60 L 796.50 437.20 L 602.90 437.20 Z" fill="#f9a431" fill-rule="nonzero" group-id="22,45,68" node-id="335" stroke="none" target-height="302.39996" target-width="193.59998" target-x="602.9" target-y="437.2"/></g></g></g><path d="M 689.30 479.60 L 642.50 479.60 L 642.50 685.20 L 695.70 685.20 L 706.10 684.90 L 715.30 684.00 L 723.40 682.60 L 730.50 680.70 L 736.70 678.40 L 742.10 675.80 L 746.90 672.80 L 751.00 669.40 L 754.60 665.70 L 757.80 661.50 L 760.60 656.80 L 762.90 651.70 L 764.70 646.10 L 766.10 639.80 L 767.00 632.90 L 767.30 625.20 L 766.90 617.70 L 765.90 611.00 L 764.30 605.10 L 762.10 599.70 L 759.40 595.00 L 756.10 590.80 L 752.30 587.00 L 747.80 583.70 L 742.70 580.80 L 736.80 578.40 L 730.00 576.40 L 735.00 574.70 L 739.60 572.40 L 743.70 569.60 L 747.40 566.30 L 750.90 562.40 L 753.70 558.20 L 756.10 553.70 L 758.00 548.90 L 759.30 543.70 L 760.20 538.10 L 760.40 532.00 L 760.10 525.20 L 759.20 519.00 L 757.70 513.50 L 755.70 508.40 L 753.10 503.80 L 750.10 499.60 L 746.40 495.80 L 742.20 492.40 L 737.30 489.30 L 731.70 486.60 L 725.30 484.20 L 717.90 482.30 L 709.50 480.80 L 700.00 479.90 L 689.30 479.60 M 681.30 650.00 L 681.30 594.00 L 698.50 594.00 L 704.40 594.30 L 709.40 595.30 L 713.60 596.80 L 717.10 598.70 L 720.10 601.10 L 722.50 604.10 L 724.50 607.50 L 726.00 611.70 L 726.90 616.60 L 727.30 622.40 L 726.90 628.00 L 726.10 632.70 L 724.80 636.60 L 723.10 639.90 L 721.00 642.60 L 718.50 644.80 L 715.60 646.50 L 712.10 647.90 L 707.70 649.00 L 702.30 649.70 L 695.70 650.00 L 681.30 650.00 M 681.30 514.00 L 698.90 514.20 L 704.00 514.90 L 708.10 515.90 L 711.40 517.20 L 714.10 518.80 L 716.40 521.20 L 718.20 524.00 L 719.60 527.50 L 720.50 531.70 L 720.90 536.80 L 720.50 542.40 L 719.50 547.00 L 717.90 550.90 L 715.90 554.00 L 713.30 556.60 L 710.10 558.70 L 706.30 560.20 L 701.70 561.20 L 696.10 561.60 L 681.30 561.60 L 681.30 514.00 Z" fill="#22b1b6" fill-rule="nonzero" group-id="23,46,69" node-id="346" stroke="none" target-height="205.6" target-width="124.79999" target-x="642.5" target-y="479.6"/></svg>