<svg t="1743477506513" class="icon" viewBox="0 0 1024 1024" version="1.1" xmlns="http://www.w3.org/2000/svg" p-id="28039" width="200" height="200"><path d="M512 512m-512 0a512 512 0 1 0 1024 0 512 512 0 1 0-1024 0Z" fill="#FF943E" p-id="28040"></path><path d="M460.8 480h96c19.2 0 38.4-19.2 38.4-38.4s-19.2-38.4-38.4-38.4c-6.4-19.2-25.6-38.4-44.8-38.4-25.6 0-44.8 19.2-44.8 38.4-19.2 0-38.4 19.2-38.4 38.4-6.4 19.2 12.8 38.4 32 38.4z m-44.8-224h185.6c44.8 0 83.2 32 96 76.8l70.4 320c12.8 51.2-19.2 102.4-70.4 115.2H352c-51.2 0-96-44.8-96-96v-19.2l70.4-320c6.4-51.2 44.8-76.8 89.6-76.8z m-19.2 396.8c-12.8 0-25.6 12.8-25.6 25.6s12.8 25.6 25.6 25.6h230.4c12.8 0 25.6-12.8 25.6-25.6s-12.8-25.6-25.6-25.6h-230.4z" fill="#FFFFFF" p-id="28041"></path></svg>