<svg t="1743489982094" class="icon" viewBox="0 0 1024 1024" version="1.1" xmlns="http://www.w3.org/2000/svg" p-id="68472" width="200" height="200"><path d="M513.026052 151.855711C313.971944 151.855711 151.855711 313.971944 151.855711 513.026052S313.971944 872.144289 513.026052 872.144289c199.054108 0 361.170341-162.116232 361.170341-361.170341S712.08016 151.855711 513.026052 151.855711m0 100.553107c55.406814 0 106.709419 18.468938 149.803607 47.198396-26.677355 6.156313-59.511022 18.468938-100.553106 34.885772-8.208417-10.260521-20.521042-16.416834-34.885771-16.416834-6.156313 0-8.208417 0-14.36473 2.052105-20.521042-24.625251-43.094188-45.146293-59.511022-59.511023 18.468938-6.156313 38.98998-8.208417 59.511022-8.208416m-104.657315 213.418837l26.677355-20.521042c20.521042-16.416834 41.042084-28.729459 59.511022-41.042084 8.208417 6.156313 20.521042 10.260521 30.781563 10.260521 6.156313 0 8.208417 0 14.36473-2.052104 14.364729 22.573146 28.729459 49.250501 41.042084 77.97996 8.208417 20.521042 16.416834 38.98998 20.521042 59.511022-6.156313 2.052104-10.260521 6.156313-16.416834 10.260521-20.521042-6.156313-38.98998-10.260521-59.511022-18.468938-45.146293-16.416834-84.136273-34.885772-114.917835-51.302605v-6.156313c2.052104-6.156313 0-14.364729-2.052105-18.468938m10.260522-197.002004c20.521042 14.364729 43.094188 36.937876 69.771543 67.719439-6.156313 8.208417-8.208417 18.468938-8.208417 28.729459 0 6.156313 0 8.208417 2.052104 12.312625-20.521042 12.312625-41.042084 26.677355-61.563126 43.094189l-26.677355 20.521042c-6.156313-6.156313-16.416834-6.156313-24.62525-6.156313-8.208417 0-18.468938 4.104208-24.625251 6.156313-28.729459-20.521042-47.198397-41.042084-59.511022-55.406814 26.677355-51.302605 73.875752-94.396794 133.386774-116.96994M248.304609 513.026052c0-32.833667 6.156313-67.719439 20.521042-98.501002 12.312625 14.364729 30.781563 30.781563 55.406814 47.198397-2.052104 6.156313-4.104208 10.260521-4.104208 18.468938s4.104208 18.468938 6.156312 24.62525c-26.677355 32.833667-47.198397 61.563126-63.61523 88.240481-10.260521-22.573146-14.364729-51.302605-14.36473-80.032064m110.813627 213.418838c-34.885772-24.625251-63.61523-57.458918-86.188376-96.448898 16.416834-28.729459 38.98998-65.667335 73.875751-104.657315 6.156313 2.052104 10.260521 4.104208 18.468938 4.104209 12.312625 0 24.625251-6.156313 32.833667-14.36473 32.833667 18.468938 73.875752 36.937876 119.022045 53.35471l55.406813 18.468938v6.156312c0 4.104208 2.052104 6.156313 2.052104 10.260521-51.302605 18.468938-116.96994 49.250501-190.845691 104.657315-8.208417 4.104208-16.416834 12.312625-24.625251 18.468938m274.981964 18.468938c-34.885772 20.521042-77.97996 30.781563-123.126252 28.729459-45.146293 0-86.188377-10.260521-125.178357-30.781564l18.468938-12.312625c71.823647-55.406814 137.490982-86.188377 186.741483-102.60521 6.156313 6.156313 18.468938 10.260521 30.781563 10.260521h4.104209c8.208417 43.094188 8.208417 80.032064 8.208416 106.709419m30.781564-18.468938c0-26.677355-4.104208-59.511022-10.260522-100.553106 6.156313-6.156313 8.208417-10.260521 12.312626-18.468938 12.312625-4.104208 20.521042-4.104208 26.677354-4.104209h67.719439c-20.521042 51.302605-53.354709 92.344689-96.448897 123.126253m36.937875-149.803607c-10.260521 0-20.521042 0-32.833667-2.052105-6.156313-14.364729-20.521042-24.625251-32.833667-28.729459-6.156313-20.521042-16.416834-45.146293-24.625251-67.719438-14.364729-32.833667-28.729459-59.511022-45.146292-86.188377 6.156313-8.208417 8.208417-18.468938 8.208416-28.729459v-6.156313c49.250501-20.521042 90.292585-32.833667 116.96994-36.937875 53.354709 47.198397 86.188377 114.917836 86.188377 190.845691 0 20.521042-4.104208 41.042084-6.156313 63.61523-18.468938 2.052104-43.094188 4.104208-69.771543 2.052105" fill="#EAB6FF" p-id="68473"></path><path d="M675.142285 49.250501C666.933868 20.521042 640.256513 0 607.422846 0c-36.937876 0-69.771543 30.781563-69.771543 67.719439 0 36.937876 30.781563 67.719439 69.771543 67.719439 18.468938 0 36.937876-6.156313 49.250501-20.521042 174.428858 61.563126 297.55511 221.627255 297.55511 410.420841 0 47.198397-6.156313 90.292585-20.521042 133.386774l59.511022 34.885771c18.468938-51.302605 30.781563-108.761523 30.781563-168.272545 0-221.627255-145.699399-410.420842-348.857715-476.088176M874.196393 761.330661c-36.937876 0-69.771543 30.781563-69.771543 67.719439 0 6.156313 2.052104 12.312625 2.052104 18.468938-75.927856 67.719439-178.533066 108.761523-291.398798 108.761523-127.230461 0-244.200401-55.406814-326.284569-141.59519l-63.61523 34.885771c92.344689 106.709419 231.887776 174.428858 385.795591 174.428858 131.334669 0 252.408818-49.250501 340.649298-131.334669 4.104208 2.052104 10.260521 2.052104 16.416834 2.052104 36.937876 0 69.771543-30.781563 69.771543-67.719439 0-34.885772-26.677355-65.667335-63.61523-65.667335M86.188377 607.422846c-4.104208-26.677355-10.260521-53.354709-10.260521-84.136273C75.927856 316.024048 225.731463 143.647295 424.785571 102.60521V32.833667C186.741483 73.875752 8.208417 279.086172 8.208417 523.286573c0 34.885772 4.104208 69.771543 12.312625 102.605211-14.364729 12.312625-20.521042 28.729459-20.521042 47.198396 0 36.937876 30.781563 67.719439 69.771543 67.719439 36.937876 0 69.771543-30.781563 69.771543-67.719439 0-32.833667-22.573146-57.458918-53.354709-65.667334" fill="#A241F7" p-id="68474"></path></svg>