<svg t="1729657797616" class="icon" viewBox="0 0 1097 1024" version="1.1" xmlns="http://www.w3.org/2000/svg" p-id="24700" width="200" height="200"><path d="M936.740571 207.433143c0-45.641143-38.034286-82.578286-84.918857-82.578286H172.617143c-46.811429 0-84.845714 36.937143-84.845714 82.578286v412.672c0 45.568 38.034286 82.578286 84.845714 82.578286h254.683428v82.432h-169.691428c-23.552 0-42.496 18.505143-42.496 41.325714a41.910857 41.910857 0 0 0 42.422857 41.252571l339.602286 0.146286a115.492571 115.492571 0 0 1-8.411429-13.750857 145.993143 145.993143 0 0 1-19.163428-41.398857l-4.242286-10.24 31.817143-37.083429v-62.171428l-31.817143-37.083429 4.242286-10.313143a261.12 261.12 0 0 1 42.642285-74.386286l8.557715-8.192 63.926857 10.24a30.208 30.208 0 0 0 31.963428-18.505142l23.405715-62.025143 10.678857-1.974857a296.009143 296.009143 0 0 1 104.594285 0l12.653715 1.974857 21.357714 59.977143c4.242286 12.434286 19.163429 20.626286 31.963429 20.626285l15.36-1.901714V207.433143zM427.300571 289.938286h254.756572v247.588571L601.819429 459.483429a341.065143 341.065143 0 0 1-216.941715 77.897142 781.897143 781.897143 0 0 1-127.268571-10.825142c89.965714-22.454857 207.213714-80.091429 251.830857-156.818286L427.300571 289.938286z" fill="#B9BFC6" p-id="24701"></path><path d="M846.921143 548.205714a218.550857 218.550857 0 0 0-79.652572 0l-8.045714 1.536-17.92 48.713143a23.04 23.04 0 0 1-24.356571 14.628572l-48.713143-8.045715-6.582857 6.436572c-14.555429 17.846857-24.283429 37.302857-32.402286 58.514285l-3.218286 8.045715 32.475429 39.058285a24.429714 24.429714 0 0 1 0 29.257143l-32.475429 38.912 3.218286 8.045715c3.218286 11.556571 8.118857 22.528 14.628571 32.548571 4.754286 9.508571 11.117714 17.554286 17.554286 25.6l0.292572 0.365714 6.509714 6.582857 50.322286-8.192a23.04 23.04 0 0 1 24.356571 14.628572l16.237714 48.786286 9.801143 1.536c25.965714 6.509714 55.149714 6.509714 81.188572 0l8.045714-1.609143 16.237714-48.713143a23.04 23.04 0 0 1 24.429714-14.628572l48.713143 8.118858 6.509715-8.045715c13.750857-16.896 24.137143-36.205714 30.793142-56.905143l3.291429-8.118857-30.866286-37.302857a24.429714 24.429714 0 0 1 0-29.257143l32.475429-40.667428-3.218286-8.045715a106.203429 106.203429 0 0 0-14.628571-30.866285c-4.900571-9.801143-11.410286-17.92-17.846857-26.038857l-6.582858-6.509715-50.249142 6.582857c-9.728 0-21.211429-6.582857-24.429715-16.310857l-16.237714-47.104-9.654857-1.536zM762.88 686.665143a64.219429 64.219429 0 0 1 46.592-18.797714 64.146286 64.146286 0 0 1 65.389714 65.462857 64.219429 64.219429 0 0 1-65.389714 65.316571 64.219429 64.219429 0 0 1-65.389714-65.316571 64.219429 64.219429 0 0 1 18.797714-46.665143z" fill="#B9BFC6" p-id="24702"></path></svg>