<svg t="1729654709226" class="icon" viewBox="0 0 1024 1024" version="1.1" xmlns="http://www.w3.org/2000/svg" p-id="20654" width="200" height="200"><path d="M27.675676 0m166.054054 0l664.216216 0q166.054054 0 166.054054 166.054054l0 664.216216q0 166.054054-166.054054 166.054054l-664.216216 0q-166.054054 0-166.054054-166.054054l0-664.216216q0-166.054054 166.054054-166.054054Z" fill="#E9E9E9" p-id="20655"></path><path d="M525.450378 826.56173c-181.137297 0-327.984432-146.847135-327.984432-327.984433 0-181.164973 146.847135-328.012108 327.984432-328.012108 181.164973 0 328.012108 146.847135 328.012108 328.012108 0 181.137297-146.847135 327.956757-328.012108 327.956757m0-826.534054C250.077405 0 26.900757 223.204324 26.900757 498.577297c0 275.345297 223.204324 498.549622 498.549621 498.549622 275.372973 0 498.577297-223.204324 498.577298-498.549622C1024.027676 223.204324 800.795676 0 525.450378 0" fill="#FFFFFF" opacity=".597" p-id="20656"></path><path d="M689.511784 250.852324h14.944865v9.077622a26.983784 26.983784 0 0 1 9.520432-8.164324 26.983784 26.983784 0 0 1 12.260324-2.712217c18.127568 0 27.205189 9.963243 27.20519 29.88973v44.917622h-14.972541v-43.533838c0-12.232649-5.894919-18.598054-17.21427-18.598054a13.450378 13.450378 0 0 0-10.904216 4.538811c-3.597838 3.625514-5.424432 8.164324-5.894919 14.059243v43.533838h-14.944865V250.852324zM638.726919 249.053405c10.876541 0 19.926486 3.597838 26.291892 10.876541 6.365405 7.251027 9.963243 16.328649 9.963243 27.205189s-3.155027 19.926486-9.492757 27.205189c-6.808216 7.251027-15.885838 10.876541-26.762378 10.876541s-19.926486-3.625514-26.734703-10.876541c-6.365405-7.278703-9.520432-15.885838-9.520432-27.205189 0-10.904216 3.597838-19.954162 9.963243-27.205189 6.808216-7.251027 15.415351-10.876541 26.291892-10.876541z m0 12.232649a18.044541 18.044541 0 0 0-15.858162 8.164324c-3.182703 4.538811-4.981622 10.43373-4.981622 18.127568 0 7.251027 1.798919 13.145946 4.981622 17.684757a18.044541 18.044541 0 0 0 15.858162 8.164324 19.372973 19.372973 0 0 0 16.328649-8.164324c3.182703-4.981622 4.981622-10.876541 4.981621-17.684757 0-7.251027-1.798919-13.588757-4.981621-18.127568a19.372973 19.372973 0 0 0-16.328649-8.164324zM429.747892 250.852324h14.944865v10.876541c1.826595-3.597838 4.096-6.780541 6.808216-9.049946a17.767784 17.767784 0 0 1 11.789838-4.096 21.033514 21.033514 0 0 1 9.520432 1.826595v14.944864a38.635243 38.635243 0 0 0-10.433729-1.356108 16.909838 16.909838 0 0 0-12.232649 5.452108c-3.625514 3.597838-5.452108 9.049946-5.452108 15.415352v38.52454h-14.944865v-72.51027zM382.14573 249.053405c10.876541 0 18.570378 2.712216 23.552 8.136649 4.538811 4.538811 6.808216 11.347027 6.808216 20.424649v46.218378h-13.588757v-10.406054a36.255135 36.255135 0 0 1-10.904216 9.049946 39.576216 39.576216 0 0 1-16.771459 3.182703c-7.693838 0-13.588757-1.798919-17.657082-5.894919a19.64973 19.64973 0 0 1-6.808216-15.415352c0-9.077622 3.597838-15.858162 10.876541-20.396973 5.894919-3.625514 14.059243-5.452108 24.022486-5.452108h16.328649v-1.798919c0-10.43373-5.452108-15.415351-16.328649-15.415351-4.981622 0-9.049946 0.913297-11.789838 2.712216a15.027892 15.027892 0 0 0-5.894919 9.520433h-14.944864a25.544649 25.544649 0 0 1 10.87654-19.040865c5.424432-3.597838 12.703135-5.424432 22.223568-5.424433z m16.328648 40.351136h-15.443027c-13.588757 0-20.396973 4.981622-20.396973 14.502054 0 2.712216 0.913297 5.424432 3.182703 7.251027a14.861838 14.861838 0 0 0 9.520433 2.712216 25.738378 25.738378 0 0 0 16.771459-5.424433 19.151568 19.151568 0 0 0 6.365405-14.97254v-4.068324zM248.389189 223.204324h15.415352v42.150054h52.583783V223.204324h15.415352v100.185946h-15.415352v-44.889946h-52.583783v44.889946h-15.415352v-100.185946z" fill="#000000" p-id="20657"></path><path d="M514.961297 773.12H250.243459V738.663784h265.216v34.456216z" fill="#4C7CEE" p-id="20658"></path><path d="M378.04973 395.485405a160.795676 160.795676 0 0 1 160.491243 160.491244 160.795676 160.795676 0 0 1-160.491243 160.463567 160.518919 160.518919 0 0 1 0-320.954811z m0 38.524541a121.939027 121.939027 0 1 0 0 243.90573 121.939027 121.939027 0 0 0 0-243.90573zM557.581838 261.258378a13.11827 13.11827 0 0 0-10.43373 4.566487c-2.712216 3.155027-4.068324 7.251027-4.068324 12.675459v44.889946h-14.944865v-44.889946c0-11.347027-5.009297-17.21427-14.972541-17.21427a13.173622 13.173622 0 0 0-11.347027 5.424432c-3.182703 3.182703-4.538811 7.721514-4.53881 13.173622v43.506162h-14.944865v-72.51027h14.944865v8.136649c5.894919-6.808216 12.260324-9.963243 19.954162-9.963244 10.876541 0 18.598054 4.068324 23.109189 12.232649 3.182703-4.538811 6.808216-7.721514 10.43373-9.520432a24.465297 24.465297 0 0 1 12.260324-2.712217c7.693838 0 13.588757 2.269405 18.570378 7.251027 4.981622 4.981622 7.251027 11.789838 7.251027 19.483676v47.602162h-14.944865v-45.332756c0-5.894919-1.383784-10.43373-3.625513-13.145946-2.739892-2.269405-6.808216-3.625514-12.703135-3.625514zM776.551784 694.244324c-19.926486 15.858162-47.602162 23.579676-83.414487 23.579676-34.456216 0-61.218595-7.721514-81.145081-23.136865-23.579676-18.570378-36.255135-47.602162-38.552216-87.04h43.091027c3.155027 24.935784 11.319351 42.620541 24.022487 53.497081 11.789838 9.520432 29.446919 14.502054 53.026594 14.502054 20.867459 0 38.08173-4.068324 51.227676-12.232648 12.703135-7.721514 19.040865-19.040865 19.040865-33.100108 0-17.21427-9.049946-31.273514-27.20519-41.236757-6.780541-3.653189-25.378595-10.43373-56.652108-21.310271-35.369514-12.730811-57.122595-21.31027-65.286919-25.849081-21.753081-14.502054-32.657297-35.369514-32.657297-63.017513 0-27.675676 10.43373-49.428757 31.273514-65.314595 19.981838-14.944865 44.917622-22.638703 75.277837-22.638702 33.542919 0 59.392 7.693838 77.519568 23.579675 19.954162 16.328649 31.273514 41.236757 34.013405 75.692973h-43.063351c-4.096-20.839784-11.347027-35.341838-22.223567-43.976648-10.876541-9.049946-27.205189-13.588757-48.51546-13.588757-18.570378 0-33.100108 3.182703-43.063351 9.077621-12.232649 7.251027-18.127568 18.570378-18.127568 34.456217 0 14.031568 7.251027 25.378595 21.31027 33.542919 6.780541 4.538811 23.552 10.876541 49.401082 19.483675 39.437838 13.616432 63.930811 23.579676 74.36454 30.830703 24.465297 16.328649 36.725622 38.995027 36.725622 67.999135-0.470486 27.205189-10.43373 49.428757-30.387892 66.200216zM794.679351 351.481081h-15.858162l12.703135-29.446919-29.031783-71.181838h16.328648l19.926487 53.054271 19.06854-53.054271h16.328649l-39.465514 100.656433z" fill="#000000" p-id="20659"></path></svg>