<svg t="1735633975049" class="icon" viewBox="0 0 1024 1024" version="1.1" xmlns="http://www.w3.org/2000/svg" p-id="3228" width="200" height="200"><path d="M758.6816 943.8208H272.4352c-107.264 0-194.2016-86.9376-194.2016-194.2016V263.3728c0-107.264 86.9376-194.2016 194.2016-194.2016h486.2464c107.264 0 194.2016 86.9376 194.2016 194.2016v486.2464c0 107.264-86.9376 194.2016-194.2016 194.2016z" fill="#F78748" p-id="3229"></path><path d="M767.6928 536.064c-6.2976-72.96-45.4656-140.1344-105.7792-181.8624 0.5632-5.0688 0.8704-10.24 0.8704-15.4624 0-77.824-63.2832-141.1072-141.1072-141.1072S380.5696 260.9152 380.5696 338.7392c0 5.2224 0.3072 10.3936 0.8704 15.4624-60.2112 41.6256-98.9696 107.8272-105.6256 180.5312-53.76 19.968-92.16 71.7312-92.16 132.352 0 77.824 63.2832 141.1072 141.1072 141.1072 32.6144 0 62.6688-11.1616 86.5792-29.7984a247.1424 247.1424 0 0 0 110.336 26.0608c37.5808 0 74.752-8.704 108.288-25.088a140.30336 140.30336 0 0 0 85.2992 28.8256c14.1312 0 25.6-11.4688 25.6-25.6s-11.4688-25.6-25.6-25.6c-49.5616 0-89.9072-40.3456-89.9072-89.9072s40.3456-89.9072 89.9072-89.9072 89.9072 40.3456 89.9072 89.9072c0 18.5856-5.632 36.4544-16.2816 51.6096a25.5488 25.5488 0 0 0 6.2464 35.6352 25.5488 25.5488 0 0 0 35.6352-6.2464 140.41088 140.41088 0 0 0 25.5488-80.9984c0.1024-59.3408-36.7104-110.1824-88.6272-131.0208z m-246.016-287.2832c49.5616 0 89.9072 40.3456 89.9072 89.9072s-40.3456 89.9072-89.9072 89.9072-89.9072-40.3456-89.9072-89.9072 40.3456-89.9072 89.9072-89.9072z m-196.9152 508.16c-49.5616 0-89.9072-40.3456-89.9072-89.9072s40.3456-89.9072 89.9072-89.9072 89.9072 40.3456 89.9072 89.9072-40.3456 89.9072-89.9072 89.9072z m249.4464-89.9072c0 26.4192 7.3216 51.0976 19.968 72.2944-22.9376 9.1136-47.616 13.8752-72.4992 13.8752a196.5056 196.5056 0 0 1-75.1616-15.0016 140.3904 140.3904 0 0 0 19.3024-71.168c0-76.5952-61.3376-139.0592-137.4208-141.0048a196.096 196.096 0 0 1 69.2224-120.1152c23.9104 43.9808 70.5536 73.8816 124.0576 73.8816 53.504 0 100.096-29.9008 124.0576-73.8816a197.1712 197.1712 0 0 1 69.1712 120.0128c-77.6192 0.256-140.6976 63.4368-140.6976 141.1072z" fill="#F7F8F8" p-id="3230"></path></svg>